<svg xmlns="http://www.w3.org/2000/svg" width="512" height="512" viewBox="0 0 512 512"><defs>
    <linearGradient id="bg" x1="0" y1="0" x2="0.9" y2="1">
      <stop offset="0" stop-color="#2A4E70"/><stop offset="1" stop-color="#132A3D"/>
    </linearGradient>
    <radialGradient id="glassI" cx="36%" cy="26%" r="85%">
      <stop offset="0" stop-color="#FFFFFF"/><stop offset="0.52" stop-color="#EDF2F8"/><stop offset="1" stop-color="#C9D7E5"/>
    </radialGradient>
    <linearGradient id="pc" gradientUnits="userSpaceOnUse" x1="-80" y1="0" x2="6" y2="0">
      <stop offset="0" stop-color="#3FB4AC"/><stop offset="1" stop-color="#4C8CCF"/>
    </linearGradient>
    <filter id="blurC" x="-40%" y="-70%" width="180%" height="240%"><feGaussianBlur stdDeviation="3.4"/></filter>
    <clipPath id="lensI"><circle cx="0" cy="0" r="92"/></clipPath>
    </defs>
      <rect x="0" y="0" width="512" height="512" rx="116" fill="url(#bg)"/>
      <g transform="translate(256,248)">
        <circle cx="0" cy="6" r="118" fill="#0C1E2E" opacity="0.28"/>
        <circle cx="0" cy="0" r="92" fill="url(#glassI)"/>
        <circle cx="0" cy="0" r="90" fill="none" stroke="#16324A" stroke-width="2.5" opacity="0.10"/>
        <g clip-path="url(#lensI)">
          <ellipse cx="-40" cy="-46" rx="44" ry="25" fill="#FFFFFF" opacity="0.5" transform="rotate(-28 -40 -46)"/>
          <path d="M -84 18 L -68 18 L -61 5 L -54 18 L -42 18 L -35 31 L -26 -56 L -17 41 L -9 18 L 2 18"
                fill="none" stroke="url(#pc)" stroke-width="12" stroke-linecap="round" stroke-linejoin="round" filter="url(#blurC)"/>
          <path d="M 8 18 H 86" fill="none" stroke="#5C7EA3" stroke-width="11" stroke-linecap="round" stroke-dasharray="0.5 20"/>
        </g>
        <circle cx="0" cy="0" r="118" fill="none" stroke="#F4F8FC" stroke-width="15"/>
        <rect x="80" y="80" width="64" height="21" rx="10.5" transform="rotate(45 80 80)" fill="#F4F8FC"/>
      </g>
    </svg>